<svg width="182" height="13" viewBox="0 0 182 13" fill="none" xmlns="http://www.w3.org/2000/svg">
<path d="M7.23438 12H5.34375L2.67188 7.25L2 8.04688V12H0.382812V1.80469H2V5.80469L5.17188 1.80469H7.25L3.69531 6.03125L7.23438 12ZM16.0156 4.85156C16.0156 5.8724 15.7057 6.63281 15.0859 7.13281C14.4661 7.6276 13.6016 7.875 12.4922 7.875H10.7344V12H9.11719V1.80469H12.4766C13.5964 1.80469 14.4661 2.0625 15.0859 2.57812C15.7057 3.08854 16.0156 3.84635 16.0156 4.85156ZM14.3984 4.82812C14.3984 4.30729 14.2266 3.91667 13.8828 3.65625C13.5443 3.39583 13.0807 3.26562 12.4922 3.26562H10.7344V6.41406H12.4922C13.0807 6.41406 13.5443 6.28385 13.8828 6.02344C14.2266 5.76302 14.3984 5.36458 14.3984 4.82812ZM17.2109 6.89844C17.2109 6.21615 17.2839 5.55729 17.4297 4.92188C17.5755 4.28646 17.8021 3.72656 18.1094 3.24219C18.4167 2.75781 18.8177 2.36979 19.3125 2.07812C19.8125 1.78125 20.4141 1.63281 21.1172 1.63281C21.8203 1.63281 22.4193 1.78125 22.9141 2.07812C23.4141 2.36979 23.8203 2.75781 24.1328 3.24219C24.4453 3.72656 24.6719 4.28646 24.8125 4.92188C24.9531 5.55729 25.0234 6.21615 25.0234 6.89844C25.0234 7.58073 24.9531 8.23958 24.8125 8.875C24.6719 9.50521 24.4479 10.0677 24.1406 10.5625C23.8333 11.0521 23.4297 11.4453 22.9297 11.7422C22.4349 12.0339 21.8307 12.1797 21.1172 12.1797C20.4036 12.1797 19.7969 12.0339 19.2969 11.7422C18.8021 11.4453 18.3984 11.0521 18.0859 10.5625C17.7786 10.0677 17.5573 9.50521 17.4219 8.875C17.2812 8.23958 17.2109 7.58073 17.2109 6.89844ZM18.8281 6.89844C18.8281 7.35677 18.862 7.8151 18.9297 8.27344C19.0026 8.73177 19.1224 9.14323 19.2891 9.50781C19.4609 9.86719 19.6927 10.1589 19.9844 10.3828C20.2812 10.6068 20.6589 10.7188 21.1172 10.7188C21.5755 10.7188 21.9505 10.6068 22.2422 10.3828C22.5391 10.1589 22.7708 9.86719 22.9375 9.50781C23.1094 9.14323 23.2292 8.73177 23.2969 8.27344C23.3698 7.8151 23.4062 7.35677 23.4062 6.89844C23.4062 6.4401 23.3698 5.98438 23.2969 5.53125C23.2292 5.07812 23.1094 4.66927 22.9375 4.30469C22.7708 3.9401 22.5365 3.64583 22.2344 3.42188C21.9375 3.19792 21.5651 3.08594 21.1172 3.08594C20.3724 3.08594 19.8047 3.42188 19.4141 4.09375C19.0234 4.76562 18.8281 5.70052 18.8281 6.89844ZM33.6406 8.88281C33.5156 9.38281 33.349 9.83594 33.1406 10.2422C32.9323 10.6484 32.6771 10.9948 32.375 11.2812C32.0781 11.5677 31.7292 11.7891 31.3281 11.9453C30.9323 12.1016 30.4766 12.1797 29.9609 12.1797C29.2474 12.1797 28.6432 12.0339 28.1484 11.7422C27.6536 11.4453 27.2474 11.0521 26.9297 10.5625C26.6172 10.0677 26.3906 9.50521 26.25 8.875C26.1146 8.23958 26.0469 7.58073 26.0469 6.89844C26.0469 6.21615 26.1146 5.55729 26.25 4.92188C26.3906 4.28646 26.6146 3.72656 26.9219 3.24219C27.2344 2.75781 27.6302 2.36979 28.1094 2.07812C28.5885 1.78125 29.1745 1.63281 29.8672 1.63281C30.0911 1.63281 30.3177 1.66146 30.5469 1.71875C30.776 1.77604 30.9896 1.86458 31.1875 1.98438C31.3854 2.09896 31.5573 2.24219 31.7031 2.41406C31.8542 2.58594 31.9609 2.78385 32.0234 3.00781V1.80469H33.4844V5.66406H32.0234C32.0234 5.34635 31.9844 5.03385 31.9062 4.72656C31.8281 4.41406 31.7031 4.13802 31.5312 3.89844C31.3594 3.65885 31.1432 3.46354 30.8828 3.3125C30.6224 3.16146 30.3151 3.08594 29.9609 3.08594C29.5026 3.08594 29.1276 3.19792 28.8359 3.42188C28.5443 3.64583 28.3099 3.9401 28.1328 4.30469C27.9557 4.66927 27.8307 5.07812 27.7578 5.53125C27.6901 5.98438 27.6562 6.4401 27.6562 6.89844C27.6562 7.35677 27.6901 7.8151 27.7578 8.27344C27.8307 8.73177 27.9531 9.14323 28.125 9.50781C28.2969 9.86719 28.5312 10.1589 28.8281 10.3828C29.125 10.6068 29.5026 10.7188 29.9609 10.7188C30.6224 10.7188 31.1302 10.5078 31.4844 10.0859C31.8438 9.66406 32.1302 9.09635 32.3438 8.38281L33.6406 8.88281ZM42.375 8.88281C42.25 9.38281 42.0833 9.83594 41.875 10.2422C41.6667 10.6484 41.4115 10.9948 41.1094 11.2812C40.8125 11.5677 40.4635 11.7891 40.0625 11.9453C39.6667 12.1016 39.2109 12.1797 38.6953 12.1797C37.9818 12.1797 37.3776 12.0339 36.8828 11.7422C36.388 11.4453 35.9818 11.0521 35.6641 10.5625C35.3516 10.0677 35.125 9.50521 34.9844 8.875C34.849 8.23958 34.7812 7.58073 34.7812 6.89844C34.7812 6.21615 34.849 5.55729 34.9844 4.92188C35.125 4.28646 35.349 3.72656 35.6562 3.24219C35.9688 2.75781 36.3646 2.36979 36.8438 2.07812C37.3229 1.78125 37.9089 1.63281 38.6016 1.63281C38.8255 1.63281 39.0521 1.66146 39.2812 1.71875C39.5104 1.77604 39.724 1.86458 39.9219 1.98438C40.1198 2.09896 40.2917 2.24219 40.4375 2.41406C40.5885 2.58594 40.6953 2.78385 40.7578 3.00781V1.80469H42.2188V5.66406H40.7578C40.7578 5.34635 40.7188 5.03385 40.6406 4.72656C40.5625 4.41406 40.4375 4.13802 40.2656 3.89844C40.0938 3.65885 39.8776 3.46354 39.6172 3.3125C39.3568 3.16146 39.0495 3.08594 38.6953 3.08594C38.237 3.08594 37.862 3.19792 37.5703 3.42188C37.2786 3.64583 37.0443 3.9401 36.8672 4.30469C36.6901 4.66927 36.5651 5.07812 36.4922 5.53125C36.4245 5.98438 36.3906 6.4401 36.3906 6.89844C36.3906 7.35677 36.4245 7.8151 36.4922 8.27344C36.5651 8.73177 36.6875 9.14323 36.8594 9.50781C37.0312 9.86719 37.2656 10.1589 37.5625 10.3828C37.8594 10.6068 38.237 10.7188 38.6953 10.7188C39.3568 10.7188 39.8646 10.5078 40.2188 10.0859C40.5781 9.66406 40.8646 9.09635 41.0781 8.38281L42.375 8.88281ZM48.6172 8.96094C48.6172 9.96094 48.3438 10.7188 47.7969 11.2344C47.2552 11.7448 46.4948 12 45.5156 12H43.5156V1.80469H45.125V5.9375H45.5156C46.4948 5.9375 47.2552 6.1849 47.7969 6.67969C48.3438 7.17448 48.6172 7.9349 48.6172 8.96094ZM47 8.97656C47 8.44531 46.8672 8.04948 46.6016 7.78906C46.3359 7.52344 45.9792 7.39062 45.5312 7.39062H45.125V10.5469H45.5312C45.9792 10.5469 46.3359 10.4167 46.6016 10.1562C46.8672 9.89062 47 9.4974 47 8.97656ZM49.4922 1.80469H51.1094V12H49.4922V1.80469ZM61.5234 1.80469H63.1406V8.82812L66.0078 1.80469H68.0391V12H66.4219V4.60938L63.3984 12H61.5234V1.80469ZM85.875 5.52344H84.4297V3.26562H83.0547V10.5469H84.6719V12H79.8281V10.5469H81.4375V3.26562H80.0469V5.52344H78.6094V1.80469H85.875V5.52344ZM87.0859 6.89844C87.0859 6.21615 87.1589 5.55729 87.3047 4.92188C87.4505 4.28646 87.6771 3.72656 87.9844 3.24219C88.2917 2.75781 88.6927 2.36979 89.1875 2.07812C89.6875 1.78125 90.2891 1.63281 90.9922 1.63281C91.6953 1.63281 92.2943 1.78125 92.7891 2.07812C93.2891 2.36979 93.6953 2.75781 94.0078 3.24219C94.3203 3.72656 94.5469 4.28646 94.6875 4.92188C94.8281 5.55729 94.8984 6.21615 94.8984 6.89844C94.8984 7.58073 94.8281 8.23958 94.6875 8.875C94.5469 9.50521 94.3229 10.0677 94.0156 10.5625C93.7083 11.0521 93.3047 11.4453 92.8047 11.7422C92.3099 12.0339 91.7057 12.1797 90.9922 12.1797C90.2786 12.1797 89.6719 12.0339 89.1719 11.7422C88.6771 11.4453 88.2734 11.0521 87.9609 10.5625C87.6536 10.0677 87.4323 9.50521 87.2969 8.875C87.1562 8.23958 87.0859 7.58073 87.0859 6.89844ZM88.7031 6.89844C88.7031 7.35677 88.737 7.8151 88.8047 8.27344C88.8776 8.73177 88.9974 9.14323 89.1641 9.50781C89.3359 9.86719 89.5677 10.1589 89.8594 10.3828C90.1562 10.6068 90.5339 10.7188 90.9922 10.7188C91.4505 10.7188 91.8255 10.6068 92.1172 10.3828C92.4141 10.1589 92.6458 9.86719 92.8125 9.50781C92.9844 9.14323 93.1042 8.73177 93.1719 8.27344C93.2448 7.8151 93.2812 7.35677 93.2812 6.89844C93.2812 6.4401 93.2448 5.98438 93.1719 5.53125C93.1042 5.07812 92.9844 4.66927 92.8125 4.30469C92.6458 3.9401 92.4115 3.64583 92.1094 3.42188C91.8125 3.19792 91.4401 3.08594 90.9922 3.08594C90.2474 3.08594 89.6797 3.42188 89.2891 4.09375C88.8984 4.76562 88.7031 5.70052 88.7031 6.89844ZM96.4609 1.80469H98.0781V6.30469C98.0781 6.86719 98.1849 7.25781 98.3984 7.47656C98.612 7.69531 98.9219 7.80469 99.3281 7.80469C99.9219 7.80469 100.409 7.5625 100.789 7.07812C101.169 6.59375 101.359 5.92448 101.359 5.07031V1.80469H102.977V12H101.359V7.26562C101.198 7.89583 100.898 8.38802 100.461 8.74219C100.023 9.09115 99.4844 9.26562 98.8438 9.26562C98.099 9.26562 97.5156 9.02344 97.0938 8.53906C96.6719 8.04948 96.4609 7.30469 96.4609 6.30469V1.80469ZM112.047 12H110.156L107.484 7.25L106.812 8.04688V12H105.195V1.80469H106.812V5.80469L109.984 1.80469H112.062L108.508 6.03125L112.047 12ZM119.609 12L118.875 9.57031H115.5L114.781 12H113.086L116.266 1.80469H118.125L121.305 12H119.609ZM115.93 8.14062H118.445L117.195 3.9375L115.93 8.14062ZM139.75 4.71875C139.75 5.29688 139.641 5.85156 139.422 6.38281C139.203 6.90885 138.901 7.3724 138.516 7.77344C138.135 8.16927 137.677 8.48698 137.141 8.72656C136.609 8.96615 136.029 9.08594 135.398 9.08594C134.836 9.08594 134.289 8.98177 133.758 8.77344C133.232 8.5651 132.766 8.27083 132.359 7.89062C131.953 7.50521 131.628 7.04688 131.383 6.51562C131.138 5.97917 131.016 5.38021 131.016 4.71875C131.016 4.11979 131.13 3.55469 131.359 3.02344C131.589 2.49219 131.901 2.02865 132.297 1.63281C132.693 1.23698 133.156 0.924479 133.688 0.695312C134.219 0.466146 134.789 0.351562 135.398 0.351562C135.987 0.351562 136.542 0.460938 137.062 0.679688C137.583 0.898438 138.044 1.20573 138.445 1.60156C138.846 1.9974 139.164 2.46094 139.398 2.99219C139.633 3.52344 139.75 4.09896 139.75 4.71875ZM139.242 4.71875C139.242 4.19792 139.143 3.70573 138.945 3.24219C138.747 2.77865 138.474 2.36979 138.125 2.01562C137.781 1.66146 137.375 1.38281 136.906 1.17969C136.438 0.971354 135.935 0.867188 135.398 0.867188C134.867 0.867188 134.367 0.966146 133.898 1.16406C133.43 1.35677 133.018 1.6276 132.664 1.97656C132.31 2.32031 132.031 2.72917 131.828 3.20312C131.63 3.67188 131.531 4.17708 131.531 4.71875C131.531 5.26562 131.63 5.77344 131.828 6.24219C132.031 6.71094 132.305 7.11979 132.648 7.46875C132.997 7.8125 133.406 8.08333 133.875 8.28125C134.349 8.47917 134.857 8.57812 135.398 8.57812C135.924 8.57812 136.422 8.47917 136.891 8.28125C137.359 8.08333 137.766 7.8125 138.109 7.46875C138.458 7.11979 138.734 6.71094 138.938 6.24219C139.141 5.77344 139.242 5.26562 139.242 4.71875ZM137.781 7.34375H136.164L135.211 5.57031H134.938V7.34375H133.578V2.0625H135.672C135.938 2.0625 136.193 2.09896 136.438 2.17188C136.682 2.23958 136.898 2.34635 137.086 2.49219C137.273 2.63281 137.419 2.8151 137.523 3.03906C137.633 3.26302 137.688 3.52344 137.688 3.82031C137.688 4.23698 137.609 4.57812 137.453 4.84375C137.302 5.10417 137.013 5.33073 136.586 5.52344L137.781 7.34375ZM136.344 3.82031C136.344 3.58594 136.284 3.41667 136.164 3.3125C136.049 3.20312 135.885 3.14844 135.672 3.14844H134.938V4.46094H135.672C135.885 4.46094 136.049 4.39844 136.164 4.27344C136.284 4.14323 136.344 3.99219 136.344 3.82031ZM155.555 4.59375C155.555 5.07292 155.427 5.5625 155.172 6.0625C154.917 6.5625 154.565 7.03646 154.117 7.48438L150.93 10.5469H153.922V9.14844H155.383V12H148.82V10.4766L152.93 6.54688C153.284 6.18229 153.539 5.84115 153.695 5.52344C153.857 5.20052 153.938 4.89062 153.938 4.59375C153.938 4.32812 153.885 4.09896 153.781 3.90625C153.682 3.71354 153.552 3.55729 153.391 3.4375C153.234 3.3125 153.055 3.22396 152.852 3.17188C152.648 3.11458 152.445 3.08594 152.242 3.08594C151.602 3.08594 151.096 3.27344 150.727 3.64844C150.362 4.02344 150.18 4.57812 150.18 5.3125H148.664C148.664 4.16146 148.969 3.26042 149.578 2.60938C150.193 1.95833 151.081 1.63281 152.242 1.63281C152.68 1.63281 153.099 1.69792 153.5 1.82812C153.901 1.95312 154.253 2.13802 154.555 2.38281C154.862 2.6276 155.104 2.9375 155.281 3.3125C155.464 3.6875 155.555 4.11458 155.555 4.59375ZM156.961 6.89844C156.961 6.21615 157.034 5.55729 157.18 4.92188C157.326 4.28646 157.552 3.72656 157.859 3.24219C158.167 2.75781 158.568 2.36979 159.062 2.07812C159.562 1.78125 160.164 1.63281 160.867 1.63281C161.57 1.63281 162.169 1.78125 162.664 2.07812C163.164 2.36979 163.57 2.75781 163.883 3.24219C164.195 3.72656 164.422 4.28646 164.562 4.92188C164.703 5.55729 164.773 6.21615 164.773 6.89844C164.773 7.58073 164.703 8.23958 164.562 8.875C164.422 9.50521 164.198 10.0677 163.891 10.5625C163.583 11.0521 163.18 11.4453 162.68 11.7422C162.185 12.0339 161.581 12.1797 160.867 12.1797C160.154 12.1797 159.547 12.0339 159.047 11.7422C158.552 11.4453 158.148 11.0521 157.836 10.5625C157.529 10.0677 157.307 9.50521 157.172 8.875C157.031 8.23958 156.961 7.58073 156.961 6.89844ZM158.578 6.89844C158.578 7.3776 158.609 7.84115 158.672 8.28906L162.672 4.27344C162.495 3.91927 162.26 3.63281 161.969 3.41406C161.682 3.19531 161.315 3.08594 160.867 3.08594C160.122 3.08594 159.555 3.42188 159.164 4.09375C158.773 4.76562 158.578 5.70052 158.578 6.89844ZM160.867 10.7188C161.326 10.7188 161.701 10.6068 161.992 10.3828C162.289 10.1589 162.521 9.86719 162.688 9.50781C162.859 9.14323 162.979 8.73177 163.047 8.27344C163.12 7.8151 163.156 7.35677 163.156 6.89844C163.156 6.46094 163.125 6.03385 163.062 5.61719L159.094 9.60156C159.271 9.9401 159.497 10.2109 159.773 10.4141C160.055 10.6172 160.419 10.7188 160.867 10.7188ZM173.023 4.59375C173.023 5.07292 172.896 5.5625 172.641 6.0625C172.385 6.5625 172.034 7.03646 171.586 7.48438L168.398 10.5469H171.391V9.14844H172.852V12H166.289V10.4766L170.398 6.54688C170.753 6.18229 171.008 5.84115 171.164 5.52344C171.326 5.20052 171.406 4.89062 171.406 4.59375C171.406 4.32812 171.354 4.09896 171.25 3.90625C171.151 3.71354 171.021 3.55729 170.859 3.4375C170.703 3.3125 170.523 3.22396 170.32 3.17188C170.117 3.11458 169.914 3.08594 169.711 3.08594C169.07 3.08594 168.565 3.27344 168.195 3.64844C167.831 4.02344 167.648 4.57812 167.648 5.3125H166.133C166.133 4.16146 166.438 3.26042 167.047 2.60938C167.661 1.95833 168.549 1.63281 169.711 1.63281C170.148 1.63281 170.568 1.69792 170.969 1.82812C171.37 1.95312 171.721 2.13802 172.023 2.38281C172.331 2.6276 172.573 2.9375 172.75 3.3125C172.932 3.6875 173.023 4.11458 173.023 4.59375ZM181.875 9.23438C181.875 9.68229 181.784 10.0885 181.602 10.4531C181.419 10.8125 181.174 11.1198 180.867 11.375C180.565 11.6302 180.214 11.8281 179.812 11.9688C179.417 12.1094 179 12.1797 178.562 12.1797C178.068 12.1797 177.607 12.112 177.18 11.9766C176.758 11.8411 176.383 11.638 176.055 11.3672C175.732 11.0964 175.469 10.7474 175.266 10.3203C175.062 9.89323 174.94 9.38542 174.898 8.79688L176.414 8.54688C176.466 9.21875 176.685 9.75 177.07 10.1406C177.456 10.526 177.953 10.7188 178.562 10.7188C179.073 10.7188 179.482 10.5833 179.789 10.3125C180.102 10.0417 180.258 9.68229 180.258 9.23438C180.258 8.625 180.06 8.1901 179.664 7.92969C179.268 7.66927 178.576 7.53906 177.586 7.53906V6.07812C177.935 6.07812 178.258 6.04427 178.555 5.97656C178.857 5.90885 179.12 5.80729 179.344 5.67188C179.568 5.53646 179.742 5.375 179.867 5.1875C179.997 4.99479 180.062 4.77083 180.062 4.51562C180.062 4.08854 179.935 3.74479 179.68 3.48438C179.424 3.21875 179.052 3.08594 178.562 3.08594C177.922 3.08594 177.43 3.26042 177.086 3.60938C176.747 3.95312 176.578 4.50521 176.578 5.26562H175.039C175.039 4.66667 175.125 4.14062 175.297 3.6875C175.469 3.23438 175.708 2.85677 176.016 2.55469C176.323 2.2474 176.693 2.01823 177.125 1.86719C177.557 1.71094 178.036 1.63281 178.562 1.63281C179 1.63281 179.406 1.70052 179.781 1.83594C180.161 1.96615 180.492 2.15625 180.773 2.40625C181.06 2.65625 181.281 2.95833 181.438 3.3125C181.599 3.66667 181.68 4.06771 181.68 4.51562C181.68 4.80208 181.633 5.07292 181.539 5.32812C181.451 5.58333 181.32 5.8099 181.148 6.00781C180.982 6.20573 180.771 6.36719 180.516 6.49219C180.266 6.61198 179.987 6.68229 179.68 6.70312C180.034 6.73438 180.346 6.82552 180.617 6.97656C180.888 7.1276 181.117 7.31771 181.305 7.54688C181.492 7.77604 181.633 8.03646 181.727 8.32812C181.826 8.61979 181.875 8.92188 181.875 9.23438Z" fill="#A1A6B4"/>
</svg>
